<svg xmlns="http://www.w3.org/2000/svg"><symbol id="mars-3" viewBox="0 0 190.2 224"><path fill="#fff" d="M95.3 5.9l94.9 54.8v109.6l-94.9 54.8L.4 170.3V60.7L95.3 5.9z"/><path fill="#ff5e3a" d="M43.3 156a1.7 1.7 0 0 1-1.8-1.8v-21.8H17.7a1.8 1.8 0 1 1 0-3.6h13.5v-11.7a1.7 1.7 0 0 1 1.8-1.8h7.1a57 57 0 0 1 55-43.7c.2-.2.4-.2.8 0 26.6.2 48.7 18.9 54.7 43.7h7a1.7 1.7 0 0 1 1.8 1.8v11.7h13.5a1.8 1.8 0 0 1 0 3.6h-23.8v21.8a1.7 1.7 0 0 1-1.8 1.8zm-8.5-37.1v9.9h121v-9.9zm56.9-43.5c-23 1.4-42.3 18.1-47.9 39.9h19.3zm-46.6 57v20h48.4v-20zM93.5 79l-25.9 36.3h25.9zm3.6-3.8v40.1h49.7a53.5 53.5 0 0 0-49.7-40.1zm0 57.2v20h8.1v-20zm11.7 0v20h36.7v-20z"/></symbol><symbol id="mars-1" viewBox="0 0 192 224"><path fill="#fff" d="M96.5 3.1l94.9 54.8v109.6l-94.9 54.8-94.9-54.8V57.9L96.5 3.1z"/><path fill="#ff9500" d="M42.8 157.1l-4.1-5.9a1.8 1.8 0 0 1 .2-2.2l14.9-17.6h-7.4a1.7 1.7 0 0 1-1.8-1.8v-13a1.7 1.7 0 0 1 1.8-1.8h10.5a48.8 48.8 0 0 1-2-13.7 42.6 42.6 0 0 1 85.1 0 45.4 45.4 0 0 1-1.9 13.7h10.4a1.7 1.7 0 0 1 1.8 1.8v13a1.7 1.7 0 0 1-1.8 1.8h-9.2l14.8 17.6a2.2 2.2 0 0 1 0 2.2l-4.2 5.9a2 2 0 0 1-2.3.6l-8.6-4.5H53.8l-8.6 4.5a2.2 2.2 0 0 1-2.4-.6zm27.4-25.7H58.3l-15.8 18.7 2.5 3.6 30.4-16zm-22-13v9.4h98.5v-9.4zm12.5-3.6h73.6a44.6 44.6 0 0 0 2.1-13.7 39 39 0 0 0-77.9 0c0 4.7.4 9.6 2.2 13.7zm17.2 25.8l-17.1 9h24.5zm-3-9.2L90 149.6h13l15.1-18.2zm40.1 9.2l-7.4 9h24.5zm19.6-9.2h-11.8l-5.4 6.3 30.6 16 2.5-3.4z"/></symbol><symbol id="mars-2" viewBox="0 0 190.7 224"><path fill="#fff" d="M95.1 4.8L190 59.6v109.6L95.1 224 .2 169.2V59.6L95.1 4.8z"/><path fill="#ff9500" d="M40 154.9a1.8 1.8 0 1 1 0-3.6h9V140h-9a1.7 1.7 0 0 1-1.8-1.8v-35.5a1.7 1.7 0 0 1 1.8-1.8h11.9c.9-25.5 20-39.6 43.2-39.6s42.3 14.1 43.2 39.6h11.9a1.7 1.7 0 0 1 1.8 1.8v35.5a1.7 1.7 0 0 1-1.8 1.8h-9v11.3h9a1.8 1.8 0 1 1 0 3.6zm1.8-50.4v31.9h106.6v-31.9zM52.6 140v11.3h11.5V140zm2.9-39.1h79.2c-.9-23.2-18.5-36-39.6-36s-38.7 12.8-39.6 36zM67.7 140v11.3h18V140zm21.6 0v11.3h11.6V140zm48.8-12.2H94.2a1.8 1.8 0 0 1 0-3.6h43.9a1.8 1.8 0 1 1 0 3.6zM104.5 140v11.3h18V140zm21.6 0v11.3h11.5V140z"/></symbol></svg>
