<svg xmlns="http://www.w3.org/2000/svg"><symbol id="mars-1" viewBox="0 0 192 220"><path fill="none" stroke="#fff" stroke-miterlimit="10" d="M96-.6l94.9 54.8v109.6L96 218.6 1.1 163.8V54.2L96-.6z"/><path fill="none" stroke="#fff" stroke-miterlimit="10" d="M42.4 153.5l-4.1-6a1.8 1.8 0 0 1 .1-2.1l15-17.7H46a1.7 1.7 0 0 1-1.8-1.8V113a1.7 1.7 0 0 1 1.8-1.8h10.4a53.3 53.3 0 0 1-1.9-13.7 42.6 42.6 0 1 1 83.1 13.7h10.5a1.7 1.7 0 0 1 1.8 1.8v12.9a1.7 1.7 0 0 1-1.8 1.8h-9.2l14.7 17.7a1.7 1.7 0 0 1 0 2.1l-4.1 6a1.8 1.8 0 0 1-2.3.5l-8.7-4.5H53.4l-8.7 4.5a1.9 1.9 0 0 1-2.3-.5zm27.4-25.8H57.9L42 146.4l2.6 3.6L75 134zm-22-12.9v9.3h98.5v-9.3zm12.4-3.6h73.6a42.3 42.3 0 0 0 2.2-13.7 39 39 0 0 0-77.9 0c0 4.7.3 9.5 2.1 13.7zm17.3 25.7l-17.1 9h24.5zm-3.1-9.2l15.2 18.2h12.9l15.1-18.2zm40.2 9.2l-7.4 9h24.5zm19.6-9.2h-11.9l-5.4 6.3 30.6 16 2.5-3.4z"/></symbol><symbol id="mars-2" viewBox="0 0 189.8 219.2"><path fill="none" stroke="#fff" stroke-miterlimit="10" d="M94.9 0l94.9 54.8v109.6l-94.9 54.8L0 164.4V54.8L94.9 0z"/><path fill="none" stroke="#fff" stroke-miterlimit="10" d="M39.8 150.1a1.8 1.8 0 0 1 0-3.6h9v-11.3h-9a1.8 1.8 0 0 1-1.8-1.8V97.9a1.7 1.7 0 0 1 1.8-1.8h11.9c.9-25.6 20-39.6 43.2-39.6s42.3 14 43.2 39.6H150a1.7 1.7 0 0 1 1.8 1.8v35.5a1.7 1.7 0 0 1-1.8 1.8h-9v11.3h9a1.8 1.8 0 0 1 0 3.6zm1.8-50.4v31.9h106.6V99.7zm10.8 35.5v11.3H64v-11.3zm2.9-39.1h79.2c-.9-23.2-18.5-36-39.6-36s-38.7 12.8-39.6 36zm12.3 39.1v11.3h17.9v-11.3zm21.6 0v11.3h11.5v-11.3zm48.7-12.3H94a1.8 1.8 0 1 1 0-3.6h43.9a1.8 1.8 0 0 1 0 3.6zm-33.6 12.3v11.3h18v-11.3zm21.6 0v11.3h11.5v-11.3z"/></symbol><symbol id="mars-3" viewBox="0 0 190.7 218"><path fill="none" stroke="#fff" stroke-miterlimit="10" d="M94.7-.6l94.9 54.8v109.6l-94.9 54.8-94.9-54.8V54.2L94.7-.6z"/><path fill="none" stroke="#fff" stroke-miterlimit="10" d="M42.7 149.5a1.7 1.7 0 0 1-1.8-1.8v-21.8H17.1a1.8 1.8 0 1 1 0-3.6h13.5v-11.7a1.7 1.7 0 0 1 1.8-1.8h7a57.2 57.2 0 0 1 55.1-43.7c.2-.2.4-.2.7 0a57 57 0 0 1 54.8 43.7h7a1.7 1.7 0 0 1 1.8 1.8v11.7h13.5a1.8 1.8 0 0 1 0 3.6h-23.8v21.8a1.7 1.7 0 0 1-1.8 1.8zm-8.5-37.1v9.9h121v-9.9zm56.9-43.5c-23 1.4-42.3 18.1-47.9 39.9h19.3zm-46.6 57v20h48.4v-20zm48.4-53.4L67 108.8h25.9zm3.6-3.8v40.1h49.7a53.6 53.6 0 0 0-49.7-40.1zm0 57.2v20h8.1v-20zm11.7 0v20h36.7v-20z"/></symbol></svg>